<?xml version="1.0" standalone="no"?>
<!DOCTYPE svg PUBLIC "-//W3C//DTD SVG 20010904//EN"
 "http://www.w3.org/TR/2001/REC-SVG-20010904/DTD/svg10.dtd">
<svg version="1.0" xmlns="http://www.w3.org/2000/svg"
 width="94.000000pt" height="94.000000pt" viewBox="0 0 94.000000 94.000000"
 preserveAspectRatio="xMidYMid meet">
<metadata>
Created by potrace 1.11, written by Peter Selinger 2001-2013
</metadata>
<g transform="translate(0.000000,94.000000) scale(0.100000,-0.100000)"
fill="#000000" stroke="none">
<path d="M300 835 c-96 -57 -186 -112 -199 -122 l-24 -19 131 -72 c73 -40 147
-81 165 -91 65 -36 102 -55 107 -54 3 1 4 -104 2 -233 l-3 -234 193 116 c106
64 195 120 198 124 4 7 5 263 1 422 -1 36 -3 37 -133 115 -73 43 -137 80 -143
82 -5 2 -28 16 -50 31 -22 15 -47 29 -55 32 -9 3 -90 -39 -190 -97z"/>
<path d="M80 439 l0 -151 32 21 c18 12 77 46 131 77 54 31 95 60 90 65 -8 8
-243 139 -249 139 -2 0 -4 -68 -4 -151z"/>
<path d="M335 338 c-28 -17 -70 -42 -95 -56 -25 -14 -62 -36 -84 -49 -47 -30
-66 -16 204 -159 13 -7 26 -11 29 -9 4 5 2 297 -2 302 -2 1 -25 -12 -52 -29z"/>
</g>
</svg>
