<svg xmlns="http://www.w3.org/2000/svg" width="99.05" height="56.621" viewBox="0 0 99.05 56.621">
  <g id="Group_90" data-name="Group 90" transform="translate(-920.05 -808.503)">
    <path id="Path_68" data-name="Path 68" d="M1016.612,847.891l-.2-.1V834.677l-3.115-19.349a4.3,4.3,0,0,0-1.085-2.232l-2.4-2.6a3.081,3.081,0,0,0-2.264-.991H954.336a2.8,2.8,0,0,0-2.379,1.321l-11.589,18.609-15.479,3.79a3.6,3.6,0,0,0-2.391,1.939l-1.161,2.414a2.915,2.915,0,0,0-.287,1.261v15.137a3.007,3.007,0,0,0,.881,2.125l.4.4a3.077,3.077,0,0,0,2.177.9h4.078a1.169,1.169,0,0,0,1.071-1.639,8.541,8.541,0,0,1-.677-4.133,8.767,8.767,0,0,1,8.818-7.874h5.42a8.767,8.767,0,0,1,8.819,7.874,8.548,8.548,0,0,1-.59,3.923,1.327,1.327,0,0,0,1.211,1.849h36.657a.866.866,0,0,0,.769-1.261,8.539,8.539,0,0,1-.854-4.512,8.768,8.768,0,0,1,8.819-7.874h5.42a8.767,8.767,0,0,1,8.818,7.874,8.542,8.542,0,0,1-.629,4.02,1.254,1.254,0,0,0,1.146,1.753h2.31a2.982,2.982,0,0,0,2.982-2.982v-4.084A2.757,2.757,0,0,0,1016.612,847.891Z" transform="translate(0 0)" fill="none" stroke="#120453" stroke-miterlimit="10" stroke-width="2"/>
    <path id="Path_69" data-name="Path 69" d="M975,816.358v12.665a1.591,1.591,0,0,1-1.59,1.59H959.378a1.58,1.58,0,0,1-1.581-1.58v-.981a2.188,2.188,0,0,1,.292-1.092l6.492-11.276a2.385,2.385,0,0,1,2.068-1.2h6.484A1.869,1.869,0,0,1,975,816.358Z" transform="translate(-11.081 -1.504)" fill="none" stroke="#120453" stroke-miterlimit="10" stroke-width="2"/>
    <circle id="Ellipse_23" data-name="Ellipse 23" cx="8.218" cy="8.218" r="8.218" transform="translate(931.854 847.688)" fill="none" stroke="#120453" stroke-miterlimit="10" stroke-width="2"/>
    <circle id="Ellipse_24" data-name="Ellipse 24" cx="8.218" cy="8.218" r="8.218" transform="translate(992.351 847.688)" fill="none" stroke="#120453" stroke-miterlimit="10" stroke-width="2"/>
  </g>
</svg>
